<svg width="24" height="24" viewBox="0 0 24 24" fill="none" xmlns="http://www.w3.org/2000/svg">
<path fill-rule="evenodd" clip-rule="evenodd" d="M7 3C4.79086 3 3 4.79086 3 7V17C3 19.2091 4.79086 21 7 21H17C19.2091 21 21 19.2091 21 17V7C21 4.79086 19.2091 3 17 3H7ZM1 7C1 3.68629 3.68629 1 7 1H17C20.3137 1 23 3.68629 23 7V17C23 20.3137 20.3137 23 17 23H7C3.68629 23 1 20.3137 1 17V7Z" fill="white"/>
<path fill-rule="evenodd" clip-rule="evenodd" d="M12.4835 8.98949C11.8593 8.89693 11.2219 9.00354 10.6618 9.29417C10.1017 9.58479 9.64745 10.0446 9.36376 10.6083C9.08006 11.1719 8.98132 11.8107 9.08156 12.4336C9.18181 13.0566 9.47595 13.6322 9.92214 14.0784C10.3683 14.5245 10.9439 14.8187 11.5669 14.9189C12.1898 15.0192 12.8286 14.9204 13.3922 14.6367C13.9559 14.353 14.4157 13.8988 14.7063 13.3387C14.997 12.7786 15.1036 12.1412 15.011 11.517C14.9166 10.8803 14.6199 10.2908 14.1648 9.83572C13.7097 9.38058 13.1202 9.0839 12.4835 8.98949ZM9.74061 7.51892C10.6741 7.03455 11.7366 6.85685 12.7769 7.01112C13.838 7.16847 14.8204 7.66295 15.579 8.4215C16.3376 9.18006 16.832 10.1625 16.9894 11.2236C17.1436 12.2639 16.966 13.3264 16.4816 14.2599C15.9972 15.1934 15.2308 15.9504 14.2914 16.4232C13.352 16.896 12.2874 17.0606 11.2491 16.8935C10.2108 16.7265 9.25158 16.2362 8.50793 15.4926C7.76428 14.7489 7.27405 13.7897 7.10696 12.7514C6.93988 11.7131 7.10446 10.6485 7.57729 9.70909C8.05011 8.76969 8.80711 8.00329 9.74061 7.51892Z" fill="white"/>
<path fill-rule="evenodd" clip-rule="evenodd" d="M16.5 6.5C16.5 5.94772 16.9477 5.5 17.5 5.5H17.51C18.0623 5.5 18.51 5.94772 18.51 6.5C18.51 7.05228 18.0623 7.5 17.51 7.5H17.5C16.9477 7.5 16.5 7.05228 16.5 6.5Z" fill="white"/>
</svg>
