<svg width="21" height="21" viewBox="0 0 21 21" fill="none" xmlns="http://www.w3.org/2000/svg">
<path d="M20.3438 4.49122C19.6052 4.8121 18.8239 5.02351 18.0243 5.11876C18.8646 4.62672 19.4965 3.84504 19.8015 2.92032C19.0071 3.38486 18.1394 3.7108 17.2356 3.88419C16.855 3.48532 16.3973 3.16801 15.8902 2.95155C15.3832 2.73509 14.8375 2.62399 14.2862 2.62501C12.0541 2.62501 10.2478 4.40508 10.2478 6.59942C10.2462 6.90464 10.2811 7.20896 10.3519 7.50587C8.75138 7.43083 7.1841 7.02253 5.75038 6.30708C4.31666 5.59164 3.04807 4.5848 2.02576 3.35098C1.66711 3.9556 1.47744 4.64545 1.47656 5.34844C1.47656 6.72657 2.19557 7.94473 3.28125 8.65841C2.63801 8.64314 2.00796 8.47289 1.44457 8.16212V8.21133C1.44457 10.1391 2.8391 11.7428 4.6848 12.1078C4.33772 12.2003 3.98006 12.2472 3.62086 12.2473C3.36598 12.2477 3.11168 12.223 2.86166 12.1734C3.37477 13.7525 4.86814 14.901 6.63715 14.9338C5.19971 16.0416 3.4349 16.6404 1.62012 16.6359C1.29799 16.6355 0.976158 16.6163 0.65625 16.5785C2.50244 17.7574 4.64848 18.381 6.83895 18.375C14.2775 18.375 18.3414 12.317 18.3414 7.0629C18.3414 6.89063 18.3369 6.71837 18.3287 6.5502C19.1174 5.98913 19.7998 5.29189 20.3438 4.49122Z" fill="white"/>
</svg>
