<svg width="61" height="68" viewBox="0 0 61 68" fill="none" xmlns="http://www.w3.org/2000/svg">
<mask id="path-1-outside-1_234_57" maskUnits="userSpaceOnUse" x="5.5" y="5" width="52" height="58" fill="black">
<rect fill="white" x="5.5" y="5" width="52" height="58"/>
<path d="M32.2574 6C20.6991 6 11.316 15.2908 11.316 26.7375C11.316 29.5995 11.9025 32.329 12.9627 34.8107C13.4922 36.0515 14.1405 37.2305 14.893 38.3338C14.9782 38.4673 15.1139 38.561 15.2698 38.5937C15.4257 38.6259 15.588 38.5945 15.7197 38.506C15.8519 38.4175 15.9419 38.2799 15.9696 38.1241C15.9973 37.9687 15.9604 37.8084 15.8668 37.6805C15.1566 36.6389 14.5451 35.5265 14.0449 34.3562C13.0451 32.0153 12.4919 29.4416 12.4919 26.7379C12.4919 15.9227 21.3338 7.16668 32.2578 7.16668C43.1818 7.16668 52.0237 15.9222 52.0237 26.7379C52.0237 27.6204 51.9606 28.4889 51.8501 29.3399L49.7708 26.5203C49.6547 26.3584 49.4639 26.2656 49.2638 26.2751C49.0461 26.2847 48.8513 26.4134 48.7584 26.6095C48.6657 26.8053 48.6898 27.0365 48.8211 27.2091L51.6452 31.0391C51.738 31.2555 51.953 31.3955 52.19 31.3939H52.2052H52.2068C52.3724 31.3895 52.5282 31.3165 52.6363 31.1926L56.2895 28.0684C56.4755 27.9138 56.5466 27.6619 56.469 27.4342C56.3915 27.2062 56.1806 27.0488 55.9384 27.0381C55.7853 27.0313 55.6359 27.0839 55.5214 27.1847L53.0355 29.3113C53.1404 28.4682 53.1958 27.6097 53.1958 26.7387C53.1958 15.2919 43.8125 6.00116 32.2545 6.00116L32.2574 6ZM35.0505 14.738C34.8372 14.7292 34.636 14.8361 34.5247 15.0166L25.592 27.1002C25.4611 27.2775 25.4414 27.5127 25.5415 27.7088C25.6415 27.9049 25.8444 28.0289 26.0657 28.0289H31.0418L28.9252 35.9987C28.9219 36.0091 28.9191 36.0194 28.9167 36.0298C28.8476 36.3148 29.0023 36.6061 29.2783 36.711C29.5539 36.8154 29.8652 36.701 30.0058 36.4431L38.9224 24.38C39.0533 24.2026 39.0726 23.9678 38.9726 23.7717C38.8722 23.5756 38.6697 23.4521 38.4479 23.4521H33.4718L35.5764 15.5276C35.6865 15.2419 35.5559 14.9202 35.2767 14.7907C35.2639 14.7851 35.2498 14.7799 35.2366 14.7755C35.2285 14.7723 35.2205 14.7695 35.2129 14.7667C35.2076 14.7643 35.2024 14.7623 35.1976 14.7604C35.1844 14.7567 35.1715 14.754 35.1582 14.7516C35.1237 14.7436 35.0883 14.7384 35.053 14.7364L35.0505 14.738ZM33.6658 18.1523L32.1413 23.89C32.0875 24.0818 32.1356 24.2874 32.2694 24.4357C32.4028 24.5836 32.6037 24.6541 32.8013 24.6222H37.2877L30.849 33.3318L32.3707 27.6041C32.3715 27.6013 32.3723 27.5981 32.3727 27.5953C32.4241 27.4139 32.3836 27.219 32.2643 27.0723C32.145 26.9257 31.9618 26.8451 31.7722 26.8563C31.7512 26.8571 31.7299 26.8595 31.7091 26.8627H27.2235L33.6658 18.1523ZM48.8903 36.0603C47.9173 36.0603 46.9435 36.4274 46.2023 37.1609L39.1618 44.1267C38.4515 42.7121 36.9776 41.7383 35.2772 41.7391L20.246 41.7435C19.3663 41.7045 18.38 41.72 17.4626 42.2525L13.9061 44.3101C13.4004 42.8173 11.9759 41.7392 10.3019 41.7392C8.20653 41.7392 6.5 43.4276 6.5 45.5043V58.2337C6.5 60.3104 8.20653 62 10.3019 62C12.3973 62 14.1034 60.3109 14.1034 58.2337V56.7897C14.6614 56.7426 15.2407 56.8773 15.8742 57.0754C15.875 57.0758 15.8754 57.0766 15.8762 57.077L29.699 61.4512C30.5225 61.712 31.3585 61.6251 32.0839 61.3381C32.5624 61.1536 33.0103 60.8715 33.3956 60.4901L51.5746 42.4883C53.057 41.0203 53.057 38.6296 51.5746 37.1619C50.8335 36.4281 49.8605 36.0614 48.8875 36.0614L48.8903 36.0603ZM48.8903 37.2174C49.5595 37.2174 50.2293 37.4741 50.7471 37.9863C51.7826 39.0119 51.7826 40.6354 50.7471 41.661L32.568 59.6629C32.4133 59.8165 32.2442 59.9461 32.0666 60.0528C32.0529 60.0608 32.0393 60.0688 32.0268 60.0768C31.8806 60.16 31.7284 60.2315 31.5713 60.2875C31.2933 60.3829 31.0029 60.4309 30.7112 60.4309C30.6791 60.4315 30.6473 60.4341 30.6156 60.4395C30.4288 60.4309 30.2424 60.4005 30.0592 60.3424L16.257 55.9742C16.2494 55.9715 16.2413 55.9683 16.2333 55.9659C15.8095 55.8335 15.356 55.7084 14.8803 55.6494C14.6277 55.6179 14.3682 55.6103 14.1038 55.6259V45.5442C14.1327 45.5335 14.1605 45.5203 14.1874 45.5052L18.0547 43.267C18.6657 42.9139 19.388 42.8808 20.2204 42.9171L20.2356 42.9167C20.2385 42.9171 20.2413 42.9171 20.2445 42.9171L35.2757 42.9127C36.7793 42.9119 38.0182 43.9223 38.3493 45.3022C38.3512 45.3098 38.3532 45.3178 38.3553 45.3258C38.4107 45.5546 38.4368 45.7933 38.4368 46.0385C38.4368 47.7815 37.0368 49.1682 35.2749 49.1682H24.127C23.9699 49.1662 23.8184 49.2268 23.7064 49.3364C23.5947 49.446 23.5317 49.5955 23.5317 49.7514C23.5317 49.9076 23.5947 50.0571 23.7064 50.1667C23.8184 50.2763 23.9699 50.3369 24.127 50.3349H35.2739C37.6657 50.3349 39.6112 48.4089 39.6112 46.0385C39.6112 45.8153 39.596 45.5961 39.5638 45.3816L47.033 37.9905C47.5517 37.4775 48.2209 37.2216 48.8902 37.2216L48.8903 37.2174ZM10.3025 42.9058C11.768 42.9058 12.9281 44.0549 12.9281 45.5042V58.2337C12.9281 59.6832 11.768 60.8331 10.3025 60.8331C8.83704 60.8331 7.6769 59.6832 7.6769 58.2337V45.5042C7.6769 44.0549 8.83704 42.9058 10.3025 42.9058Z"/>
</mask>
<path d="M32.2574 6C20.6991 6 11.316 15.2908 11.316 26.7375C11.316 29.5995 11.9025 32.329 12.9627 34.8107C13.4922 36.0515 14.1405 37.2305 14.893 38.3338C14.9782 38.4673 15.1139 38.561 15.2698 38.5937C15.4257 38.6259 15.588 38.5945 15.7197 38.506C15.8519 38.4175 15.9419 38.2799 15.9696 38.1241C15.9973 37.9687 15.9604 37.8084 15.8668 37.6805C15.1566 36.6389 14.5451 35.5265 14.0449 34.3562C13.0451 32.0153 12.4919 29.4416 12.4919 26.7379C12.4919 15.9227 21.3338 7.16668 32.2578 7.16668C43.1818 7.16668 52.0237 15.9222 52.0237 26.7379C52.0237 27.6204 51.9606 28.4889 51.8501 29.3399L49.7708 26.5203C49.6547 26.3584 49.4639 26.2656 49.2638 26.2751C49.0461 26.2847 48.8513 26.4134 48.7584 26.6095C48.6657 26.8053 48.6898 27.0365 48.8211 27.2091L51.6452 31.0391C51.738 31.2555 51.953 31.3955 52.19 31.3939H52.2052H52.2068C52.3724 31.3895 52.5282 31.3165 52.6363 31.1926L56.2895 28.0684C56.4755 27.9138 56.5466 27.6619 56.469 27.4342C56.3915 27.2062 56.1806 27.0488 55.9384 27.0381C55.7853 27.0313 55.6359 27.0839 55.5214 27.1847L53.0355 29.3113C53.1404 28.4682 53.1958 27.6097 53.1958 26.7387C53.1958 15.2919 43.8125 6.00116 32.2545 6.00116L32.2574 6ZM35.0505 14.738C34.8372 14.7292 34.636 14.8361 34.5247 15.0166L25.592 27.1002C25.4611 27.2775 25.4414 27.5127 25.5415 27.7088C25.6415 27.9049 25.8444 28.0289 26.0657 28.0289H31.0418L28.9252 35.9987C28.9219 36.0091 28.9191 36.0194 28.9167 36.0298C28.8476 36.3148 29.0023 36.6061 29.2783 36.711C29.5539 36.8154 29.8652 36.701 30.0058 36.4431L38.9224 24.38C39.0533 24.2026 39.0726 23.9678 38.9726 23.7717C38.8722 23.5756 38.6697 23.4521 38.4479 23.4521H33.4718L35.5764 15.5276C35.6865 15.2419 35.5559 14.9202 35.2767 14.7907C35.2639 14.7851 35.2498 14.7799 35.2366 14.7755C35.2285 14.7723 35.2205 14.7695 35.2129 14.7667C35.2076 14.7643 35.2024 14.7623 35.1976 14.7604C35.1844 14.7567 35.1715 14.754 35.1582 14.7516C35.1237 14.7436 35.0883 14.7384 35.053 14.7364L35.0505 14.738ZM33.6658 18.1523L32.1413 23.89C32.0875 24.0818 32.1356 24.2874 32.2694 24.4357C32.4028 24.5836 32.6037 24.6541 32.8013 24.6222H37.2877L30.849 33.3318L32.3707 27.6041C32.3715 27.6013 32.3723 27.5981 32.3727 27.5953C32.4241 27.4139 32.3836 27.219 32.2643 27.0723C32.145 26.9257 31.9618 26.8451 31.7722 26.8563C31.7512 26.8571 31.7299 26.8595 31.7091 26.8627H27.2235L33.6658 18.1523ZM48.8903 36.0603C47.9173 36.0603 46.9435 36.4274 46.2023 37.1609L39.1618 44.1267C38.4515 42.7121 36.9776 41.7383 35.2772 41.7391L20.246 41.7435C19.3663 41.7045 18.38 41.72 17.4626 42.2525L13.9061 44.3101C13.4004 42.8173 11.9759 41.7392 10.3019 41.7392C8.20653 41.7392 6.5 43.4276 6.5 45.5043V58.2337C6.5 60.3104 8.20653 62 10.3019 62C12.3973 62 14.1034 60.3109 14.1034 58.2337V56.7897C14.6614 56.7426 15.2407 56.8773 15.8742 57.0754C15.875 57.0758 15.8754 57.0766 15.8762 57.077L29.699 61.4512C30.5225 61.712 31.3585 61.6251 32.0839 61.3381C32.5624 61.1536 33.0103 60.8715 33.3956 60.4901L51.5746 42.4883C53.057 41.0203 53.057 38.6296 51.5746 37.1619C50.8335 36.4281 49.8605 36.0614 48.8875 36.0614L48.8903 36.0603ZM48.8903 37.2174C49.5595 37.2174 50.2293 37.4741 50.7471 37.9863C51.7826 39.0119 51.7826 40.6354 50.7471 41.661L32.568 59.6629C32.4133 59.8165 32.2442 59.9461 32.0666 60.0528C32.0529 60.0608 32.0393 60.0688 32.0268 60.0768C31.8806 60.16 31.7284 60.2315 31.5713 60.2875C31.2933 60.3829 31.0029 60.4309 30.7112 60.4309C30.6791 60.4315 30.6473 60.4341 30.6156 60.4395C30.4288 60.4309 30.2424 60.4005 30.0592 60.3424L16.257 55.9742C16.2494 55.9715 16.2413 55.9683 16.2333 55.9659C15.8095 55.8335 15.356 55.7084 14.8803 55.6494C14.6277 55.6179 14.3682 55.6103 14.1038 55.6259V45.5442C14.1327 45.5335 14.1605 45.5203 14.1874 45.5052L18.0547 43.267C18.6657 42.9139 19.388 42.8808 20.2204 42.9171L20.2356 42.9167C20.2385 42.9171 20.2413 42.9171 20.2445 42.9171L35.2757 42.9127C36.7793 42.9119 38.0182 43.9223 38.3493 45.3022C38.3512 45.3098 38.3532 45.3178 38.3553 45.3258C38.4107 45.5546 38.4368 45.7933 38.4368 46.0385C38.4368 47.7815 37.0368 49.1682 35.2749 49.1682H24.127C23.9699 49.1662 23.8184 49.2268 23.7064 49.3364C23.5947 49.446 23.5317 49.5955 23.5317 49.7514C23.5317 49.9076 23.5947 50.0571 23.7064 50.1667C23.8184 50.2763 23.9699 50.3369 24.127 50.3349H35.2739C37.6657 50.3349 39.6112 48.4089 39.6112 46.0385C39.6112 45.8153 39.596 45.5961 39.5638 45.3816L47.033 37.9905C47.5517 37.4775 48.2209 37.2216 48.8902 37.2216L48.8903 37.2174ZM10.3025 42.9058C11.768 42.9058 12.9281 44.0549 12.9281 45.5042V58.2337C12.9281 59.6832 11.768 60.8331 10.3025 60.8331C8.83704 60.8331 7.6769 59.6832 7.6769 58.2337V45.5042C7.6769 44.0549 8.83704 42.9058 10.3025 42.9058Z" fill="#F37521"/>
<path d="M32.2574 6C20.6991 6 11.316 15.2908 11.316 26.7375C11.316 29.5995 11.9025 32.329 12.9627 34.8107C13.4922 36.0515 14.1405 37.2305 14.893 38.3338C14.9782 38.4673 15.1139 38.561 15.2698 38.5937C15.4257 38.6259 15.588 38.5945 15.7197 38.506C15.8519 38.4175 15.9419 38.2799 15.9696 38.1241C15.9973 37.9687 15.9604 37.8084 15.8668 37.6805C15.1566 36.6389 14.5451 35.5265 14.0449 34.3562C13.0451 32.0153 12.4919 29.4416 12.4919 26.7379C12.4919 15.9227 21.3338 7.16668 32.2578 7.16668C43.1818 7.16668 52.0237 15.9222 52.0237 26.7379C52.0237 27.6204 51.9606 28.4889 51.8501 29.3399L49.7708 26.5203C49.6547 26.3584 49.4639 26.2656 49.2638 26.2751C49.0461 26.2847 48.8513 26.4134 48.7584 26.6095C48.6657 26.8053 48.6898 27.0365 48.8211 27.2091L51.6452 31.0391C51.738 31.2555 51.953 31.3955 52.19 31.3939H52.2052H52.2068C52.3724 31.3895 52.5282 31.3165 52.6363 31.1926L56.2895 28.0684C56.4755 27.9138 56.5466 27.6619 56.469 27.4342C56.3915 27.2062 56.1806 27.0488 55.9384 27.0381C55.7853 27.0313 55.6359 27.0839 55.5214 27.1847L53.0355 29.3113C53.1404 28.4682 53.1958 27.6097 53.1958 26.7387C53.1958 15.2919 43.8125 6.00116 32.2545 6.00116L32.2574 6ZM35.0505 14.738C34.8372 14.7292 34.636 14.8361 34.5247 15.0166L25.592 27.1002C25.4611 27.2775 25.4414 27.5127 25.5415 27.7088C25.6415 27.9049 25.8444 28.0289 26.0657 28.0289H31.0418L28.9252 35.9987C28.9219 36.0091 28.9191 36.0194 28.9167 36.0298C28.8476 36.3148 29.0023 36.6061 29.2783 36.711C29.5539 36.8154 29.8652 36.701 30.0058 36.4431L38.9224 24.38C39.0533 24.2026 39.0726 23.9678 38.9726 23.7717C38.8722 23.5756 38.6697 23.4521 38.4479 23.4521H33.4718L35.5764 15.5276C35.6865 15.2419 35.5559 14.9202 35.2767 14.7907C35.2639 14.7851 35.2498 14.7799 35.2366 14.7755C35.2285 14.7723 35.2205 14.7695 35.2129 14.7667C35.2076 14.7643 35.2024 14.7623 35.1976 14.7604C35.1844 14.7567 35.1715 14.754 35.1582 14.7516C35.1237 14.7436 35.0883 14.7384 35.053 14.7364L35.0505 14.738ZM33.6658 18.1523L32.1413 23.89C32.0875 24.0818 32.1356 24.2874 32.2694 24.4357C32.4028 24.5836 32.6037 24.6541 32.8013 24.6222H37.2877L30.849 33.3318L32.3707 27.6041C32.3715 27.6013 32.3723 27.5981 32.3727 27.5953C32.4241 27.4139 32.3836 27.219 32.2643 27.0723C32.145 26.9257 31.9618 26.8451 31.7722 26.8563C31.7512 26.8571 31.7299 26.8595 31.7091 26.8627H27.2235L33.6658 18.1523ZM48.8903 36.0603C47.9173 36.0603 46.9435 36.4274 46.2023 37.1609L39.1618 44.1267C38.4515 42.7121 36.9776 41.7383 35.2772 41.7391L20.246 41.7435C19.3663 41.7045 18.38 41.72 17.4626 42.2525L13.9061 44.3101C13.4004 42.8173 11.9759 41.7392 10.3019 41.7392C8.20653 41.7392 6.5 43.4276 6.5 45.5043V58.2337C6.5 60.3104 8.20653 62 10.3019 62C12.3973 62 14.1034 60.3109 14.1034 58.2337V56.7897C14.6614 56.7426 15.2407 56.8773 15.8742 57.0754C15.875 57.0758 15.8754 57.0766 15.8762 57.077L29.699 61.4512C30.5225 61.712 31.3585 61.6251 32.0839 61.3381C32.5624 61.1536 33.0103 60.8715 33.3956 60.4901L51.5746 42.4883C53.057 41.0203 53.057 38.6296 51.5746 37.1619C50.8335 36.4281 49.8605 36.0614 48.8875 36.0614L48.8903 36.0603ZM48.8903 37.2174C49.5595 37.2174 50.2293 37.4741 50.7471 37.9863C51.7826 39.0119 51.7826 40.6354 50.7471 41.661L32.568 59.6629C32.4133 59.8165 32.2442 59.9461 32.0666 60.0528C32.0529 60.0608 32.0393 60.0688 32.0268 60.0768C31.8806 60.16 31.7284 60.2315 31.5713 60.2875C31.2933 60.3829 31.0029 60.4309 30.7112 60.4309C30.6791 60.4315 30.6473 60.4341 30.6156 60.4395C30.4288 60.4309 30.2424 60.4005 30.0592 60.3424L16.257 55.9742C16.2494 55.9715 16.2413 55.9683 16.2333 55.9659C15.8095 55.8335 15.356 55.7084 14.8803 55.6494C14.6277 55.6179 14.3682 55.6103 14.1038 55.6259V45.5442C14.1327 45.5335 14.1605 45.5203 14.1874 45.5052L18.0547 43.267C18.6657 42.9139 19.388 42.8808 20.2204 42.9171L20.2356 42.9167C20.2385 42.9171 20.2413 42.9171 20.2445 42.9171L35.2757 42.9127C36.7793 42.9119 38.0182 43.9223 38.3493 45.3022C38.3512 45.3098 38.3532 45.3178 38.3553 45.3258C38.4107 45.5546 38.4368 45.7933 38.4368 46.0385C38.4368 47.7815 37.0368 49.1682 35.2749 49.1682H24.127C23.9699 49.1662 23.8184 49.2268 23.7064 49.3364C23.5947 49.446 23.5317 49.5955 23.5317 49.7514C23.5317 49.9076 23.5947 50.0571 23.7064 50.1667C23.8184 50.2763 23.9699 50.3369 24.127 50.3349H35.2739C37.6657 50.3349 39.6112 48.4089 39.6112 46.0385C39.6112 45.8153 39.596 45.5961 39.5638 45.3816L47.033 37.9905C47.5517 37.4775 48.2209 37.2216 48.8902 37.2216L48.8903 37.2174ZM10.3025 42.9058C11.768 42.9058 12.9281 44.0549 12.9281 45.5042V58.2337C12.9281 59.6832 11.768 60.8331 10.3025 60.8331C8.83704 60.8331 7.6769 59.6832 7.6769 58.2337V45.5042C7.6769 44.0549 8.83704 42.9058 10.3025 42.9058Z" stroke="#F37521" stroke-width="1.4" mask="url(#path-1-outside-1_234_57)"/>
</svg>
