<svg width="49" height="47" viewBox="0 0 49 47" fill="none" xmlns="http://www.w3.org/2000/svg">
<g clip-path="url(#clip0_234_66)">
<mask id="path-1-outside-1_234_66" maskUnits="userSpaceOnUse" x="-0.5" y="-1.00049" width="50" height="48" fill="black">
<rect fill="white" x="-0.5" y="-1.00049" width="50" height="48"/>
<path d="M14.8301 7.17736C14.8301 6.14761 15.2716 4.54038 16.5158 3.39861C17.571 2.43012 19.003 1.98492 20.6676 2.10679C24.0127 2.35738 24.6488 0.466515 24.6743 0.386861C24.7644 0.100847 25.0703 -0.0625366 25.3597 0.0216318C25.6495 0.106941 25.8165 0.404001 25.7342 0.691536C25.7011 0.807311 24.8636 3.51434 20.5848 3.19601C19.2209 3.09508 18.1025 3.43176 17.2662 4.19954C16.2829 5.10216 15.9339 6.36806 15.9339 7.17776C15.9339 7.47976 15.6872 7.72386 15.382 7.72386C15.0768 7.72386 14.8301 7.47861 14.8301 7.17736ZM23.3288 3.99918C23.2669 4.03422 22.6888 4.33013 20.7703 4.1957C19.3252 4.08867 18.4327 4.57958 17.937 5.00691C17.0053 5.81046 16.8679 6.84291 16.8475 7.14076C16.8275 7.44166 17.0576 7.70141 17.3624 7.72121C17.3747 7.72156 17.3867 7.72231 17.399 7.72231C17.6868 7.72231 17.9297 7.50106 17.9489 7.21201C17.9755 6.81821 18.1764 6.24846 18.6617 5.83031C19.1528 5.40716 19.8363 5.22436 20.691 5.28416C23.1495 5.45936 23.8795 4.99966 24.0819 4.79439C24.2944 4.57807 24.289 4.23265 24.0704 4.02242C23.8645 3.82514 23.5425 3.81713 23.3288 3.99918ZM7.69338 11.3202C7.70879 11.3217 7.72496 11.3224 7.74037 11.3224C8.02438 11.3224 8.26488 11.1069 8.28914 10.8224C8.39883 9.53701 9.56649 9.07506 11.204 8.56321C12.292 8.22311 13.3192 7.90206 13.6105 7.05126C13.7083 6.76561 13.5532 6.45561 13.2653 6.35851C12.9774 6.26136 12.6634 6.41526 12.5653 6.70011C12.4537 7.02651 11.6131 7.28926 10.8716 7.52121C9.39334 7.98316 7.36981 8.61581 7.19009 10.7298C7.16432 11.0307 7.38936 11.2954 7.69338 11.3202ZM7.22116 13.3736H8.34189L8.75676 27.1303L9.85015 26.759L9.41335 12.2808H6.14819L5.69562 28.1688L6.81048 27.7906L7.22116 13.3736ZM15.1365 9.98446H16.2513L16.6766 27.3953L16.6889 27.3949L17.7704 26.9668L17.3285 8.89306H14.0569L13.5967 28.6194L14.7111 28.1784L15.1365 9.98446ZM48.5 45.4437V46.5356H0.5V45.4437H2.80177L2.80139 30.0062L12.5224 26.7081V29.8338L20.5242 26.6667V29.8501H22.6221L22.6217 17.5452H35.7941V34.0122H41.5746V37.0594H45.0113L47.733 40.6949V43.7222H45.4365C45.4165 44.5003 44.9278 45.1629 44.2378 45.4425L48.5 45.4437ZM44.3328 43.7234H42.686C42.7114 44.153 43.0689 44.4954 43.5092 44.4954C43.9491 44.4954 44.3074 44.1526 44.3328 43.7234ZM41.5742 38.1524V42.6315H46.6293V41.0563L44.4557 38.1524H41.5742ZM41.0223 43.7234H36.7243C36.7042 44.5015 36.2155 45.1641 35.5254 45.4437H42.7807C42.0907 45.1642 41.6023 44.5007 41.5823 43.7234H41.0223ZM34.7973 44.4954C35.2375 44.4954 35.5955 44.1526 35.6208 43.7234H33.9733C33.9986 44.1526 34.357 44.4954 34.7973 44.4954ZM40.4704 35.1054H31.5795V42.6315H40.4704V35.1054ZM3.90487 45.4438H34.0684C33.3784 45.1643 32.8892 44.5008 32.8696 43.7235H30.4758L30.4754 34.0135H34.6899V18.6374H23.7244V30.9414H19.4198V28.2782L11.418 31.4453V28.2367L3.90408 30.7853L3.90487 45.4438ZM11.2952 43.7159H12.3985V33.4018H11.2952V43.7159ZM19.2975 43.7159H20.4008V33.4018H19.2975V43.7159ZM27.3024 43.7159H28.4057V33.4018H27.3024V43.7159ZM27.3024 30.9556H28.4057V28.5217H27.3024V30.9556ZM31.0281 28.5217H29.9248V30.9556H31.0281V28.5217ZM27.3024 27.4069H28.4057V24.9729H27.3024V27.4069ZM31.0281 24.9729H29.9248V27.4069H31.0281V24.9729ZM27.3024 23.8125H28.4057V21.3785H27.3024V23.8125ZM31.0281 21.3785H29.9248V23.8125H31.0281V21.3785ZM44.7907 40.0958L44.0471 39.0039H42.3653V40.0958H44.7907Z"/>
</mask>
<path d="M14.8301 7.17736C14.8301 6.14761 15.2716 4.54038 16.5158 3.39861C17.571 2.43012 19.003 1.98492 20.6676 2.10679C24.0127 2.35738 24.6488 0.466515 24.6743 0.386861C24.7644 0.100847 25.0703 -0.0625366 25.3597 0.0216318C25.6495 0.106941 25.8165 0.404001 25.7342 0.691536C25.7011 0.807311 24.8636 3.51434 20.5848 3.19601C19.2209 3.09508 18.1025 3.43176 17.2662 4.19954C16.2829 5.10216 15.9339 6.36806 15.9339 7.17776C15.9339 7.47976 15.6872 7.72386 15.382 7.72386C15.0768 7.72386 14.8301 7.47861 14.8301 7.17736ZM23.3288 3.99918C23.2669 4.03422 22.6888 4.33013 20.7703 4.1957C19.3252 4.08867 18.4327 4.57958 17.937 5.00691C17.0053 5.81046 16.8679 6.84291 16.8475 7.14076C16.8275 7.44166 17.0576 7.70141 17.3624 7.72121C17.3747 7.72156 17.3867 7.72231 17.399 7.72231C17.6868 7.72231 17.9297 7.50106 17.9489 7.21201C17.9755 6.81821 18.1764 6.24846 18.6617 5.83031C19.1528 5.40716 19.8363 5.22436 20.691 5.28416C23.1495 5.45936 23.8795 4.99966 24.0819 4.79439C24.2944 4.57807 24.289 4.23265 24.0704 4.02242C23.8645 3.82514 23.5425 3.81713 23.3288 3.99918ZM7.69338 11.3202C7.70879 11.3217 7.72496 11.3224 7.74037 11.3224C8.02438 11.3224 8.26488 11.1069 8.28914 10.8224C8.39883 9.53701 9.56649 9.07506 11.204 8.56321C12.292 8.22311 13.3192 7.90206 13.6105 7.05126C13.7083 6.76561 13.5532 6.45561 13.2653 6.35851C12.9774 6.26136 12.6634 6.41526 12.5653 6.70011C12.4537 7.02651 11.6131 7.28926 10.8716 7.52121C9.39334 7.98316 7.36981 8.61581 7.19009 10.7298C7.16432 11.0307 7.38936 11.2954 7.69338 11.3202ZM7.22116 13.3736H8.34189L8.75676 27.1303L9.85015 26.759L9.41335 12.2808H6.14819L5.69562 28.1688L6.81048 27.7906L7.22116 13.3736ZM15.1365 9.98446H16.2513L16.6766 27.3953L16.6889 27.3949L17.7704 26.9668L17.3285 8.89306H14.0569L13.5967 28.6194L14.7111 28.1784L15.1365 9.98446ZM48.5 45.4437V46.5356H0.5V45.4437H2.80177L2.80139 30.0062L12.5224 26.7081V29.8338L20.5242 26.6667V29.8501H22.6221L22.6217 17.5452H35.7941V34.0122H41.5746V37.0594H45.0113L47.733 40.6949V43.7222H45.4365C45.4165 44.5003 44.9278 45.1629 44.2378 45.4425L48.5 45.4437ZM44.3328 43.7234H42.686C42.7114 44.153 43.0689 44.4954 43.5092 44.4954C43.9491 44.4954 44.3074 44.1526 44.3328 43.7234ZM41.5742 38.1524V42.6315H46.6293V41.0563L44.4557 38.1524H41.5742ZM41.0223 43.7234H36.7243C36.7042 44.5015 36.2155 45.1641 35.5254 45.4437H42.7807C42.0907 45.1642 41.6023 44.5007 41.5823 43.7234H41.0223ZM34.7973 44.4954C35.2375 44.4954 35.5955 44.1526 35.6208 43.7234H33.9733C33.9986 44.1526 34.357 44.4954 34.7973 44.4954ZM40.4704 35.1054H31.5795V42.6315H40.4704V35.1054ZM3.90487 45.4438H34.0684C33.3784 45.1643 32.8892 44.5008 32.8696 43.7235H30.4758L30.4754 34.0135H34.6899V18.6374H23.7244V30.9414H19.4198V28.2782L11.418 31.4453V28.2367L3.90408 30.7853L3.90487 45.4438ZM11.2952 43.7159H12.3985V33.4018H11.2952V43.7159ZM19.2975 43.7159H20.4008V33.4018H19.2975V43.7159ZM27.3024 43.7159H28.4057V33.4018H27.3024V43.7159ZM27.3024 30.9556H28.4057V28.5217H27.3024V30.9556ZM31.0281 28.5217H29.9248V30.9556H31.0281V28.5217ZM27.3024 27.4069H28.4057V24.9729H27.3024V27.4069ZM31.0281 24.9729H29.9248V27.4069H31.0281V24.9729ZM27.3024 23.8125H28.4057V21.3785H27.3024V23.8125ZM31.0281 21.3785H29.9248V23.8125H31.0281V21.3785ZM44.7907 40.0958L44.0471 39.0039H42.3653V40.0958H44.7907Z" fill="#FF7215"/>
<path d="M14.8301 7.17736C14.8301 6.14761 15.2716 4.54038 16.5158 3.39861C17.571 2.43012 19.003 1.98492 20.6676 2.10679C24.0127 2.35738 24.6488 0.466515 24.6743 0.386861C24.7644 0.100847 25.0703 -0.0625366 25.3597 0.0216318C25.6495 0.106941 25.8165 0.404001 25.7342 0.691536C25.7011 0.807311 24.8636 3.51434 20.5848 3.19601C19.2209 3.09508 18.1025 3.43176 17.2662 4.19954C16.2829 5.10216 15.9339 6.36806 15.9339 7.17776C15.9339 7.47976 15.6872 7.72386 15.382 7.72386C15.0768 7.72386 14.8301 7.47861 14.8301 7.17736ZM23.3288 3.99918C23.2669 4.03422 22.6888 4.33013 20.7703 4.1957C19.3252 4.08867 18.4327 4.57958 17.937 5.00691C17.0053 5.81046 16.8679 6.84291 16.8475 7.14076C16.8275 7.44166 17.0576 7.70141 17.3624 7.72121C17.3747 7.72156 17.3867 7.72231 17.399 7.72231C17.6868 7.72231 17.9297 7.50106 17.9489 7.21201C17.9755 6.81821 18.1764 6.24846 18.6617 5.83031C19.1528 5.40716 19.8363 5.22436 20.691 5.28416C23.1495 5.45936 23.8795 4.99966 24.0819 4.79439C24.2944 4.57807 24.289 4.23265 24.0704 4.02242C23.8645 3.82514 23.5425 3.81713 23.3288 3.99918ZM7.69338 11.3202C7.70879 11.3217 7.72496 11.3224 7.74037 11.3224C8.02438 11.3224 8.26488 11.1069 8.28914 10.8224C8.39883 9.53701 9.56649 9.07506 11.204 8.56321C12.292 8.22311 13.3192 7.90206 13.6105 7.05126C13.7083 6.76561 13.5532 6.45561 13.2653 6.35851C12.9774 6.26136 12.6634 6.41526 12.5653 6.70011C12.4537 7.02651 11.6131 7.28926 10.8716 7.52121C9.39334 7.98316 7.36981 8.61581 7.19009 10.7298C7.16432 11.0307 7.38936 11.2954 7.69338 11.3202ZM7.22116 13.3736H8.34189L8.75676 27.1303L9.85015 26.759L9.41335 12.2808H6.14819L5.69562 28.1688L6.81048 27.7906L7.22116 13.3736ZM15.1365 9.98446H16.2513L16.6766 27.3953L16.6889 27.3949L17.7704 26.9668L17.3285 8.89306H14.0569L13.5967 28.6194L14.7111 28.1784L15.1365 9.98446ZM48.5 45.4437V46.5356H0.5V45.4437H2.80177L2.80139 30.0062L12.5224 26.7081V29.8338L20.5242 26.6667V29.8501H22.6221L22.6217 17.5452H35.7941V34.0122H41.5746V37.0594H45.0113L47.733 40.6949V43.7222H45.4365C45.4165 44.5003 44.9278 45.1629 44.2378 45.4425L48.5 45.4437ZM44.3328 43.7234H42.686C42.7114 44.153 43.0689 44.4954 43.5092 44.4954C43.9491 44.4954 44.3074 44.1526 44.3328 43.7234ZM41.5742 38.1524V42.6315H46.6293V41.0563L44.4557 38.1524H41.5742ZM41.0223 43.7234H36.7243C36.7042 44.5015 36.2155 45.1641 35.5254 45.4437H42.7807C42.0907 45.1642 41.6023 44.5007 41.5823 43.7234H41.0223ZM34.7973 44.4954C35.2375 44.4954 35.5955 44.1526 35.6208 43.7234H33.9733C33.9986 44.1526 34.357 44.4954 34.7973 44.4954ZM40.4704 35.1054H31.5795V42.6315H40.4704V35.1054ZM3.90487 45.4438H34.0684C33.3784 45.1643 32.8892 44.5008 32.8696 43.7235H30.4758L30.4754 34.0135H34.6899V18.6374H23.7244V30.9414H19.4198V28.2782L11.418 31.4453V28.2367L3.90408 30.7853L3.90487 45.4438ZM11.2952 43.7159H12.3985V33.4018H11.2952V43.7159ZM19.2975 43.7159H20.4008V33.4018H19.2975V43.7159ZM27.3024 43.7159H28.4057V33.4018H27.3024V43.7159ZM27.3024 30.9556H28.4057V28.5217H27.3024V30.9556ZM31.0281 28.5217H29.9248V30.9556H31.0281V28.5217ZM27.3024 27.4069H28.4057V24.9729H27.3024V27.4069ZM31.0281 24.9729H29.9248V27.4069H31.0281V24.9729ZM27.3024 23.8125H28.4057V21.3785H27.3024V23.8125ZM31.0281 21.3785H29.9248V23.8125H31.0281V21.3785ZM44.7907 40.0958L44.0471 39.0039H42.3653V40.0958H44.7907Z" stroke="#F37521" stroke-width="0.6" mask="url(#path-1-outside-1_234_66)"/>
</g>
<defs>
<clipPath id="clip0_234_66">
<rect width="48" height="47" fill="white" transform="translate(0.5)"/>
</clipPath>
</defs>
</svg>
