<svg width="17" height="18" viewBox="0 0 17 18" fill="none" xmlns="http://www.w3.org/2000/svg">
<path d="M5.62514 5.62354C6.09288 2.6585 7.19611 0.57666 8.47998 0.57666C9.76385 0.57666 10.8671 2.6585 11.3348 5.62354H5.62514ZM11.5768 8.81104C11.5768 9.54814 11.538 10.2554 11.4703 10.936H5.49288C5.42514 10.2554 5.38643 9.54814 5.38643 8.81104C5.38643 8.07393 5.42514 7.3667 5.49288 6.68604H11.4703C11.538 7.3667 11.5768 8.07393 11.5768 8.81104ZM1.10256 5.62354C2.02514 3.36904 3.89288 1.62588 6.19934 0.921973C5.41224 2.04424 4.8703 3.73428 4.58643 5.62354H1.10256ZM10.7639 0.921973C13.0671 1.62588 14.938 3.36904 15.8574 5.62354H12.3735C12.0929 3.73428 11.5509 2.04424 10.7639 0.921973V0.921973ZM0.7574 6.68604H4.4574C4.38966 7.3833 4.35095 8.09717 4.35095 8.81104C4.35095 9.5249 4.38966 10.2388 4.4574 10.936H0.760626C0.583207 10.2554 0.483207 9.54814 0.483207 8.81104C0.483207 8.07393 0.583207 7.3667 0.7574 6.68604ZM12.609 8.81104C12.609 8.09717 12.5703 7.3833 12.5026 6.68604H16.2026C16.3768 7.3667 16.48 8.07393 16.48 8.81104C16.48 9.54814 16.3768 10.2554 16.2026 10.936H12.5058C12.5703 10.2388 12.609 9.5249 12.609 8.81104V8.81104ZM11.3348 11.9985C10.8671 14.9636 9.76385 17.0454 8.47998 17.0454C7.19611 17.0454 6.09288 14.9636 5.62514 11.9985H11.3348ZM6.19611 16.7001C3.89288 15.9962 2.02192 14.253 1.09934 11.9985H4.58321C4.86708 13.8878 5.40901 15.5778 6.19611 16.7001ZM15.8574 11.9985C14.9348 14.253 13.0671 15.9962 10.7606 16.7001C11.5477 15.5778 12.0897 13.8878 12.3735 11.9985H15.8574V11.9985Z" fill="#FF7215"/>
</svg>
