<svg width="55" height="56" viewBox="0 0 55 56" fill="none" xmlns="http://www.w3.org/2000/svg">
<g clip-path="url(#clip0_1228_480)">
<path fill-rule="evenodd" clip-rule="evenodd" d="M0 28C0 20.7065 2.89731 13.7118 8.05456 8.55456C13.2118 3.39731 20.2065 0.5 27.5 0.5C34.7935 0.5 41.7882 3.39731 46.9454 8.55456C52.1027 13.7118 55 20.7065 55 28C55 35.2935 52.1027 42.2882 46.9454 47.4454C41.7882 52.6027 34.7935 55.5 27.5 55.5C20.2065 55.5 13.2118 52.6027 8.05456 47.4454C2.89731 42.2882 0 35.2935 0 28Z" fill="#FF7215"/>
</g>
<path d="M27.5 29C28.2562 29 28.9039 28.7305 29.4429 28.1915C29.981 27.6534 30.25 27.0062 30.25 26.25C30.25 25.4937 29.981 24.8461 29.4429 24.3071C28.9039 23.769 28.2562 23.5 27.5 23.5C26.7437 23.5 26.0966 23.769 25.5585 24.3071C25.0195 24.8461 24.75 25.4937 24.75 26.25C24.75 27.0062 25.0195 27.6534 25.5585 28.1915C26.0966 28.7305 26.7437 29 27.5 29ZM27.5 42.2344C27.3167 42.2344 27.1333 42.2 26.95 42.1312C26.7667 42.0625 26.6062 41.9708 26.4687 41.8562C23.1229 38.9 20.625 36.156 18.975 33.6241C17.325 31.0914 16.5 28.725 16.5 26.525C16.5 23.0875 17.606 20.349 19.8179 18.3094C22.0289 16.2698 24.5896 15.25 27.5 15.25C30.4104 15.25 32.9711 16.2698 35.1821 18.3094C37.394 20.349 38.5 23.0875 38.5 26.525C38.5 28.725 37.675 31.0914 36.025 33.6241C34.375 36.156 31.8771 38.9 28.5312 41.8562C28.3937 41.9708 28.2333 42.0625 28.05 42.1312C27.8667 42.2 27.6833 42.2344 27.5 42.2344Z" fill="white"/>
<defs>
<clipPath id="clip0_1228_480">
<rect width="55" height="55" fill="white" transform="translate(0 0.5)"/>
</clipPath>
</defs>
</svg>
