<svg width="55" height="56" viewBox="0 0 55 56" fill="none" xmlns="http://www.w3.org/2000/svg">
<g clip-path="url(#clip0_1228_467)">
<path fill-rule="evenodd" clip-rule="evenodd" d="M0 28C0 20.7065 2.89731 13.7118 8.05456 8.55456C13.2118 3.39731 20.2065 0.5 27.5 0.5C34.7935 0.5 41.7882 3.39731 46.9454 8.55456C52.1027 13.7118 55 20.7065 55 28C55 35.2935 52.1027 42.2882 46.9454 47.4454C41.7882 52.6027 34.7935 55.5 27.5 55.5C20.2065 55.5 13.2118 52.6027 8.05456 47.4454C2.89731 42.2882 0 35.2935 0 28Z" fill="#FF7215"/>
<path d="M34.889 40.0068C33.8762 40.0068 32.4535 39.6406 30.3231 38.4506C27.7326 36.9981 25.7288 35.6571 23.1522 33.0878C20.668 30.6056 19.4591 28.9986 17.7671 25.9203C15.8557 22.4447 16.1815 20.6229 16.5458 19.8443C16.9795 18.9137 17.6198 18.357 18.4473 17.8046C18.9174 17.4967 19.4148 17.2327 19.9333 17.0161C19.9852 16.9938 20.0334 16.9725 20.0765 16.9533C20.3333 16.8376 20.7225 16.6628 21.2154 16.8496C21.5443 16.973 21.838 17.2257 22.2977 17.6796C23.2404 18.6092 24.5287 20.6795 25.004 21.6962C25.323 22.3815 25.5342 22.8338 25.5347 23.3411C25.5347 23.9351 25.2359 24.3931 24.8732 24.8875C24.8052 24.9804 24.7378 25.0691 24.6724 25.1552C24.2776 25.6739 24.1909 25.8238 24.248 26.0915C24.3637 26.6295 25.2265 28.2308 26.6445 29.6454C28.0625 31.06 29.618 31.8682 30.1581 31.9834C30.4373 32.0431 30.5903 31.9528 31.1258 31.544C31.2026 31.4854 31.2814 31.4247 31.3639 31.364C31.917 30.9527 32.3539 30.6616 32.934 30.6616H32.9371C33.4419 30.6616 33.8741 30.8806 34.5901 31.2416C35.524 31.7126 37.657 32.9841 38.5925 33.9277C39.0475 34.3862 39.3012 34.6788 39.4252 35.0072C39.612 35.5015 39.4361 35.889 39.3214 36.1484C39.3022 36.1915 39.281 36.2387 39.2587 36.2911C39.0403 36.8085 38.7747 37.3048 38.4654 37.7736C37.9138 38.5984 37.355 39.237 36.4221 39.6712C35.9431 39.8977 35.4189 40.0125 34.889 40.0068Z" fill="white"/>
</g>
<defs>
<clipPath id="clip0_1228_467">
<rect width="55" height="55" fill="white" transform="translate(0 0.5)"/>
</clipPath>
</defs>
</svg>
